
        <svg xmlns="http://www.w3.org/2000/svg" xmlns:xlink="http://www.w3.org/1999/xlink" version="1.1" width="3285.714285714286" height="2960.726471830901" viewBox="0 -257.14285714285717 3285.714285714286 2960.726471830901">
			
			<g transform="scale(14.285714285714288) translate(10, 10)">
				<defs id="SvgjsDefs1624"/><g id="SvgjsG1625" featureKey="monogramFeature-0" transform="matrix(2.458341360092163,0,0,2.458341360092163,41.1475009292477,-66.85110459147977)" fill="#000"><path d="M1.68 74.22 c-0.6 0.24 -1.02 -0.12 -0.54 -1.02 c0.24 -0.6 1.26 -5.1 2.34 -10.5 c-2.28 -0.6 -3.54 -1.5 -3.54 -2.46 c0 -1.62 0.78 -4.68 5.94 -10.62 l0.36 -2.16 c1.38 -8.7 4.02 -26.16 4.2 -27.06 c0.12 -0.9 1.8 -0.78 1.5 1.38 c-0.18 1.26 -2.58 14.4 -4.8 26.46 c2.64 -2.82 6.18 -6.24 11.04 -10.32 c16.44 -13.92 23.94 -16.56 24.78 -17.34 c0.9 -0.78 1.44 -0.84 0.9 0.3 c-0.9 1.92 -9.12 5.88 -24.06 18 c-6.18 4.98 -10.44 9.18 -13.26 12.54 l-1.92 10.32 c3.12 0.54 8.1 0.78 14.1 0.36 c10.14 -0.72 15.06 -2.16 16.56 -2.88 s1.74 -0.42 1.2 0.12 c-0.54 0.6 -5.46 3 -16.8 4.14 c-6.36 0.6 -11.76 0.24 -15.3 -0.54 l-0.9 4.68 c-1.2 5.82 -1.2 6.42 -1.8 6.6 z M1.2 60.18 c0 0.54 0.9 1.02 2.52 1.38 l1.56 -8.58 c-3.12 3.9 -4.08 6.42 -4.08 7.2 z"/></g><g id="SvgjsG1626" featureKey="nameFeature-0" transform="matrix(1.2430028915405273,0,0,1.2430028915405273,-5.219369460927927,119.06943478546745)" fill="#000"><path d="M20.156 40 l-9.6875 -12.598 l-2.3828 0 l0 12.598 l-3.8867 0 l0 -27.617 l3.8867 0 l0 11.543 l2.3438 0 l9.4141 -11.543 l4.7656 0 l-10.82 13.164 l11.348 14.453 l-4.9805 0 z M47.9836484375 40.37109 c-7.832 0 -13.809 -5.3906 -13.809 -14.199 c0 -8.7891 5.9766 -14.16 13.809 -14.16 c7.793 0 13.789 5.3711 13.789 14.16 c0 8.8086 -5.9961 14.199 -13.789 14.199 z M47.9836484375 36.7187 c5.5273 0 9.9023 -3.8281 9.9023 -10.547 c0 -6.6602 -4.375 -10.488 -9.9023 -10.488 c-5.5469 0 -9.9414 3.8281 -9.9414 10.488 c0 6.7188 4.3945 10.547 9.9414 10.547 z M82.685984375 40.37109 c-5.7617 0 -9.9805 -2.7539 -10.918 -7.4414 l3.9648 -0.9375 c0.625 3.2227 3.418 5.0781 7.0898 5.0781 c2.9492 0 5.7813 -1.2109 5.7227 -4.5313 c-0.039063 -3.2813 -3.5938 -4.1797 -7.3633 -5.2148 c-4.2773 -1.1719 -8.5547 -2.5195 -8.5547 -7.5977 c0 -5.1367 4.2383 -7.7148 9.2578 -7.7148 c4.8633 0 9.2383 2.0508 10.273 6.7969 l-3.7695 0.95703 c-0.68359 -3.0664 -3.2422 -4.4336 -6.3281 -4.4336 c-2.7734 0 -5.5273 1.2109 -5.5273 4.3555 c0 2.8516 3.0859 3.6914 6.582 4.6289 c4.3945 1.1914 9.4336 2.5586 9.4336 8.1055 c0 5.5859 -4.6875 7.9492 -9.8633 7.9492 z M134.3406953125 40 l-3.8086 0 l-1.8164 -22.461 l-8.5352 22.461 l-2.3633 0 l-8.4766 -22.383 l-1.8555 22.383 l-3.8281 0 l2.1289 -27.617 l5.2539 0 l7.9492 20.879 l7.9883 -20.879 l5.2539 0 z M159.35571875 40.37109 c-7.832 0 -13.809 -5.3906 -13.809 -14.199 c0 -8.7891 5.9766 -14.16 13.809 -14.16 c7.793 0 13.789 5.3711 13.789 14.16 c0 8.8086 -5.9961 14.199 -13.789 14.199 z M159.35571875 36.7187 c5.5273 0 9.9023 -3.8281 9.9023 -10.547 c0 -6.6602 -4.375 -10.488 -9.9023 -10.488 c-5.5469 0 -9.9414 3.8281 -9.9414 10.488 c0 6.7188 4.3945 10.547 9.9414 10.547 z"/></g>
			</g>
		</svg>
	